# xmcd
#
# Track frame offsets: 
#        150
#        11310
#        27524
#        42430
#        56315
#        71335
#        91895
#        107906
#        122585
#        137437
#        156250
#        172410
#        187828
#        202961
#        218754
#        232866
#        248061
#        261355
#        280005
#        294592
#        307704
#        323273
#        346904
#        363313
#        375943
#
# Disc length: 5236 seconds
#
# Revision: 4
# Processed by: cddbd v1.5.2PL0 Copyright (c) Steve Scherf et al.
# Submitted via: ExactAudioCopyFreeDBPlugin 1.0
#
DISCID=50147219
DTITLE=Various Artist - Sweet Soul Music 1972 - 25 Scorching Classics
DTITLE=From 1972
DYEAR=1972
DGENRE=Soul
TTITLE0=Joe Tex - I Gotcha
TTITLE1=The Soul Children - Hearsay
TTITLE2=The Stylistics - Betcha By Golly, Wow
TTITLE3=The JB's - Gimme Some More
TTITLE4=Denise LaSalle - Now Run and Tell That
TTITLE5=The Dramatics - In the Rain (single edit)
TTITLE6=Bobby Womack - Woman's Gotta Have It
TTITLE7=The Staple Singers - I'll Take You There
TTITLE8=Laura Lee - Rip Off
TTITLE9=Billy Preston - Outa-Space
TTITLE10=Luther Ingram - (If Loving You is Wrong) I Don't Want to Be R
TTITLE10=ight
TTITLE11=The Main Ingredient - Everybody Plays the Fool
TTITLE12=The Cornelius Brother and Sister Rose - Too Late to Turn Back N
TTITLE12=ow
TTITLE13=The Chi-Lites - Oh Girl
TTITLE14=The O'Jays - Back Stabbers
TTITLE15=Lyn Collins (The Female Preacher) - Think (About It)
TTITLE16=Joe Simon - Power of Love
TTITLE17=Mel and Tim - Starting All Over Again
TTITLE18=Al Green - I'm Still in Love with You
TTITLE19=Betty Wright - Baby Sitter
TTITLE20=Harold Melvin and The Blue Notes - If You Don't Know Me By Now
TTITLE21=James Brown - Get on the Good Foot Part 1
TTITLE22=Billy Paul - Me and Mrs. Jones (single edit)
TTITLE23=Otis Clay - Trying to Live My Life Without You
TTITLE24=Bill Withers - Use Me
EXTD=
EXTT0=
EXTT1=
EXTT2=
EXTT3=
EXTT4=
EXTT5=
EXTT6=
EXTT7=
EXTT8=
EXTT9=
EXTT10=
EXTT11=
EXTT12=
EXTT13=
EXTT14=
EXTT15=
EXTT16=
EXTT17=
EXTT18=
EXTT19=
EXTT20=
EXTT21=
EXTT22=
EXTT23=
EXTT24=
PLAYORDER=
